solid OpenSCAD_Model
  facet normal 0 0 -1
    outer loop
      vertex -5.7735 -9.99998 0
      vertex -2.5 -4.33012 0
      vertex -2.03368 -4.56772 0
    endloop
  endfacet
  facet normal 0 0 -1
    outer loop
      vertex 5.7735 -10 0
      vertex -5.7735 -9.99998 0
      vertex 0 -5 0
    endloop
  endfacet
  facet normal 0 0 -1
    outer loop
      vertex -11.547 0 0
      vertex -5 0 0
      vertex -4.9726 -0.522629 0
    endloop
  endfacet
  facet normal 0 0 -1
    outer loop
      vertex 11.547 0 0
      vertex 5 0 0
      vertex 4.9726 0.522629 0
    endloop
  endfacet
  facet normal 0 0 -1
    outer loop
      vertex -11.547 0 0
      vertex -4.9726 0.522629 0
      vertex -5 0 0
    endloop
  endfacet
  facet normal 0 0 -1
    outer loop
      vertex -5.7735 -9.99998 0
      vertex -0.522629 -4.9726 0
      vertex 0 -5 0
    endloop
  endfacet
  facet normal 0 0 -1
    outer loop
      vertex 5.7735 10 0
      vertex 2.93892 4.04507 0
      vertex 2.5 4.33012 0
    endloop
  endfacet
  facet normal 0 0 -1
    outer loop
      vertex -5.7735 -9.99998 0
      vertex -1.03955 -4.89073 0
      vertex -0.522629 -4.9726 0
    endloop
  endfacet
  facet normal 0 0 -1
    outer loop
      vertex -5.7735 -9.99998 0
      vertex -1.54507 -4.75528 0
      vertex -1.03955 -4.89073 0
    endloop
  endfacet
  facet normal 0 0 -1
    outer loop
      vertex -5.7735 -9.99998 0
      vertex -2.03368 -4.56772 0
      vertex -1.54507 -4.75528 0
    endloop
  endfacet
  facet normal 0 -0 -1
    outer loop
      vertex -2.93892 -4.04507 0
      vertex -2.5 -4.33012 0
      vertex -5.7735 -9.99998 0
    endloop
  endfacet
  facet normal 0 -0 -1
    outer loop
      vertex -3.34564 -3.71571 0
      vertex -2.93892 -4.04507 0
      vertex -5.7735 -9.99998 0
    endloop
  endfacet
  facet normal 0 -0 -1
    outer loop
      vertex -3.71571 -3.34564 0
      vertex -3.34564 -3.71571 0
      vertex -5.7735 -9.99998 0
    endloop
  endfacet
  facet normal 0 -0 -1
    outer loop
      vertex -4.04507 -2.93892 0
      vertex -3.71571 -3.34564 0
      vertex -5.7735 -9.99998 0
    endloop
  endfacet
  facet normal 0 -0 -1
    outer loop
      vertex -4.33012 -2.49998 0
      vertex -4.04507 -2.93892 0
      vertex -5.7735 -9.99998 0
    endloop
  endfacet
  facet normal 0 0 -1
    outer loop
      vertex -11.547 0 0
      vertex -4.33012 -2.49998 0
      vertex -5.7735 -9.99998 0
    endloop
  endfacet
  facet normal 0 0 -1
    outer loop
      vertex -11.547 0 0
      vertex -4.56772 -2.03368 0
      vertex -4.33012 -2.49998 0
    endloop
  endfacet
  facet normal 0 0 -1
    outer loop
      vertex -11.547 0 0
      vertex -4.75528 -1.54507 0
      vertex -4.56772 -2.03368 0
    endloop
  endfacet
  facet normal 0 0 -1
    outer loop
      vertex -11.547 0 0
      vertex -4.89073 -1.03955 0
      vertex -4.75528 -1.54507 0
    endloop
  endfacet
  facet normal 0 0 -1
    outer loop
      vertex -11.547 0 0
      vertex -4.9726 -0.522629 0
      vertex -4.89073 -1.03955 0
    endloop
  endfacet
  facet normal 0 0 -1
    outer loop
      vertex -11.547 0 0
      vertex -4.89073 1.03955 0
      vertex -4.9726 0.522629 0
    endloop
  endfacet
  facet normal 0 0 -1
    outer loop
      vertex -11.547 0 0
      vertex -4.75528 1.54507 0
      vertex -4.89073 1.03955 0
    endloop
  endfacet
  facet normal 0 0 -1
    outer loop
      vertex -11.547 0 0
      vertex -4.56772 2.03368 0
      vertex -4.75528 1.54507 0
    endloop
  endfacet
  facet normal 0 0 -1
    outer loop
      vertex -11.547 0 0
      vertex -4.33012 2.49998 0
      vertex -4.56772 2.03368 0
    endloop
  endfacet
  facet normal 0 0 -1
    outer loop
      vertex -11.547 0 0
      vertex -5.7735 10 0
      vertex -4.33012 2.49998 0
    endloop
  endfacet
  facet normal 0 0 -1
    outer loop
      vertex -4.33012 2.49998 0
      vertex -5.7735 10 0
      vertex -4.04507 2.93892 0
    endloop
  endfacet
  facet normal 0 0 -1
    outer loop
      vertex -4.04507 2.93892 0
      vertex -5.7735 10 0
      vertex -3.71571 3.34564 0
    endloop
  endfacet
  facet normal 0 0 -1
    outer loop
      vertex -3.71571 3.34564 0
      vertex -5.7735 10 0
      vertex -3.34564 3.71571 0
    endloop
  endfacet
  facet normal 0 0 -1
    outer loop
      vertex -3.34564 3.71571 0
      vertex -5.7735 10 0
      vertex -2.93892 4.04507 0
    endloop
  endfacet
  facet normal 0 0 -1
    outer loop
      vertex -2.93892 4.04507 0
      vertex -5.7735 10 0
      vertex -2.49998 4.33012 0
    endloop
  endfacet
  facet normal 0 0 -1
    outer loop
      vertex -2.49998 4.33012 0
      vertex -5.7735 10 0
      vertex -2.03368 4.56772 0
    endloop
  endfacet
  facet normal 0 0 -1
    outer loop
      vertex -2.03368 4.56772 0
      vertex -5.7735 10 0
      vertex -1.54507 4.75528 0
    endloop
  endfacet
  facet normal 0 0 -1
    outer loop
      vertex -1.54507 4.75528 0
      vertex -5.7735 10 0
      vertex -1.03955 4.89073 0
    endloop
  endfacet
  facet normal 0 0 -1
    outer loop
      vertex -1.03955 4.89073 0
      vertex -5.7735 10 0
      vertex -0.522629 4.9726 0
    endloop
  endfacet
  facet normal 0 0 -1
    outer loop
      vertex -0.522629 4.9726 0
      vertex -5.7735 10 0
      vertex 0 5 0
    endloop
  endfacet
  facet normal 0 0 -1
    outer loop
      vertex 0 5 0
      vertex -5.7735 10 0
      vertex 5.7735 10 0
    endloop
  endfacet
  facet normal 0 0 -1
    outer loop
      vertex 0.522629 4.9726 0
      vertex 0 5 0
      vertex 5.7735 10 0
    endloop
  endfacet
  facet normal 0 0 -1
    outer loop
      vertex 1.03955 4.89073 0
      vertex 0.522629 4.9726 0
      vertex 5.7735 10 0
    endloop
  endfacet
  facet normal 0 0 -1
    outer loop
      vertex 1.54507 4.75528 0
      vertex 1.03955 4.89073 0
      vertex 5.7735 10 0
    endloop
  endfacet
  facet normal 0 0 -1
    outer loop
      vertex 2.5 4.33012 0
      vertex 2.03368 4.56772 0
      vertex 5.7735 10 0
    endloop
  endfacet
  facet normal 0 0 -1
    outer loop
      vertex 2.03368 4.56772 0
      vertex 1.54507 4.75528 0
      vertex 5.7735 10 0
    endloop
  endfacet
  facet normal 0 0 -1
    outer loop
      vertex 5.7735 10 0
      vertex 3.34564 3.71571 0
      vertex 2.93892 4.04507 0
    endloop
  endfacet
  facet normal 0 0 -1
    outer loop
      vertex 5.7735 10 0
      vertex 3.71571 3.34564 0
      vertex 3.34564 3.71571 0
    endloop
  endfacet
  facet normal 0 0 -1
    outer loop
      vertex 5.7735 10 0
      vertex 4.04507 2.93892 0
      vertex 3.71571 3.34564 0
    endloop
  endfacet
  facet normal 0 0 -1
    outer loop
      vertex 5.7735 10 0
      vertex 4.33012 2.49998 0
      vertex 4.04507 2.93892 0
    endloop
  endfacet
  facet normal 0 -0 -1
    outer loop
      vertex 5.7735 10 0
      vertex 11.547 0 0
      vertex 4.33012 2.49998 0
    endloop
  endfacet
  facet normal -0 0 -1
    outer loop
      vertex 11.547 0 0
      vertex 4.9726 -0.522629 0
      vertex 5 0 0
    endloop
  endfacet
  facet normal 0 0 -1
    outer loop
      vertex 11.547 0 0
      vertex 4.56772 2.03368 0
      vertex 4.33012 2.49998 0
    endloop
  endfacet
  facet normal 0 0 -1
    outer loop
      vertex 11.547 0 0
      vertex 4.75528 1.54507 0
      vertex 4.56772 2.03368 0
    endloop
  endfacet
  facet normal 0 0 -1
    outer loop
      vertex 11.547 0 0
      vertex 4.89073 1.03955 0
      vertex 4.75528 1.54507 0
    endloop
  endfacet
  facet normal 0 0 -1
    outer loop
      vertex 11.547 0 0
      vertex 4.9726 0.522629 0
      vertex 4.89073 1.03955 0
    endloop
  endfacet
  facet normal 0 0 -1
    outer loop
      vertex 11.547 0 0
      vertex 4.89073 -1.03955 0
      vertex 4.9726 -0.522629 0
    endloop
  endfacet
  facet normal 0 0 -1
    outer loop
      vertex 11.547 0 0
      vertex 4.75528 -1.54507 0
      vertex 4.89073 -1.03955 0
    endloop
  endfacet
  facet normal 0 0 -1
    outer loop
      vertex 11.547 0 0
      vertex 4.56772 -2.03368 0
      vertex 4.75528 -1.54507 0
    endloop
  endfacet
  facet normal 0 0 -1
    outer loop
      vertex 11.547 0 0
      vertex 4.33012 -2.49998 0
      vertex 4.56772 -2.03368 0
    endloop
  endfacet
  facet normal 0 0 -1
    outer loop
      vertex 11.547 0 0
      vertex 5.7735 -10 0
      vertex 4.33012 -2.49998 0
    endloop
  endfacet
  facet normal 0 -0 -1
    outer loop
      vertex 4.33012 -2.49998 0
      vertex 5.7735 -10 0
      vertex 4.04507 -2.93892 0
    endloop
  endfacet
  facet normal 0 -0 -1
    outer loop
      vertex 4.04507 -2.93892 0
      vertex 5.7735 -10 0
      vertex 3.71571 -3.34564 0
    endloop
  endfacet
  facet normal 0 -0 -1
    outer loop
      vertex 3.71571 -3.34564 0
      vertex 5.7735 -10 0
      vertex 3.34564 -3.71571 0
    endloop
  endfacet
  facet normal 0 -0 -1
    outer loop
      vertex 3.34564 -3.71571 0
      vertex 5.7735 -10 0
      vertex 2.93892 -4.04507 0
    endloop
  endfacet
  facet normal 0 -0 -1
    outer loop
      vertex 2.93892 -4.04507 0
      vertex 5.7735 -10 0
      vertex 2.5 -4.33012 0
    endloop
  endfacet
  facet normal 0 -0 -1
    outer loop
      vertex 2.5 -4.33012 0
      vertex 5.7735 -10 0
      vertex 2.03368 -4.56772 0
    endloop
  endfacet
  facet normal 0 -0 -1
    outer loop
      vertex 2.03368 -4.56772 0
      vertex 5.7735 -10 0
      vertex 1.54507 -4.75528 0
    endloop
  endfacet
  facet normal 0 -0 -1
    outer loop
      vertex 1.54507 -4.75528 0
      vertex 5.7735 -10 0
      vertex 1.03955 -4.89073 0
    endloop
  endfacet
  facet normal 0 -0 -1
    outer loop
      vertex 1.03955 -4.89073 0
      vertex 5.7735 -10 0
      vertex 0.522629 -4.9726 0
    endloop
  endfacet
  facet normal 0 -0 -1
    outer loop
      vertex 0.522629 -4.9726 0
      vertex 5.7735 -10 0
      vertex 0 -5 0
    endloop
  endfacet
  facet normal 0 0 1
    outer loop
      vertex -2.03368 -4.56772 110
      vertex -2.5 -4.33012 110
      vertex -5.7735 -9.99998 110
    endloop
  endfacet
  facet normal 0 0 1
    outer loop
      vertex 0 -5 110
      vertex -5.7735 -9.99998 110
      vertex 5.7735 -10 110
    endloop
  endfacet
  facet normal 0 0 1
    outer loop
      vertex -4.9726 -0.522629 110
      vertex -5 0 110
      vertex -11.547 0 110
    endloop
  endfacet
  facet normal 0 0 1
    outer loop
      vertex 4.9726 0.522629 110
      vertex 5 0 110
      vertex 11.547 0 110
    endloop
  endfacet
  facet normal 0 -0 1
    outer loop
      vertex -5 0 110
      vertex -4.9726 0.522629 110
      vertex -11.547 0 110
    endloop
  endfacet
  facet normal 0 0 1
    outer loop
      vertex 0 -5 110
      vertex -0.522629 -4.9726 110
      vertex -5.7735 -9.99998 110
    endloop
  endfacet
  facet normal -0 0 1
    outer loop
      vertex 2.5 4.33012 110
      vertex 2.93892 4.04507 110
      vertex 5.7735 10 110
    endloop
  endfacet
  facet normal 0 0 1
    outer loop
      vertex -0.522629 -4.9726 110
      vertex -1.03955 -4.89073 110
      vertex -5.7735 -9.99998 110
    endloop
  endfacet
  facet normal 0 0 1
    outer loop
      vertex -1.03955 -4.89073 110
      vertex -1.54507 -4.75528 110
      vertex -5.7735 -9.99998 110
    endloop
  endfacet
  facet normal 0 0 1
    outer loop
      vertex -1.54507 -4.75528 110
      vertex -2.03368 -4.56772 110
      vertex -5.7735 -9.99998 110
    endloop
  endfacet
  facet normal 0 0 1
    outer loop
      vertex -5.7735 -9.99998 110
      vertex -2.5 -4.33012 110
      vertex -2.93892 -4.04507 110
    endloop
  endfacet
  facet normal 0 0 1
    outer loop
      vertex -5.7735 -9.99998 110
      vertex -2.93892 -4.04507 110
      vertex -3.34564 -3.71571 110
    endloop
  endfacet
  facet normal 0 0 1
    outer loop
      vertex -5.7735 -9.99998 110
      vertex -3.34564 -3.71571 110
      vertex -3.71571 -3.34564 110
    endloop
  endfacet
  facet normal 0 0 1
    outer loop
      vertex -5.7735 -9.99998 110
      vertex -3.71571 -3.34564 110
      vertex -4.04507 -2.93892 110
    endloop
  endfacet
  facet normal 0 0 1
    outer loop
      vertex -5.7735 -9.99998 110
      vertex -4.04507 -2.93892 110
      vertex -4.33012 -2.49998 110
    endloop
  endfacet
  facet normal 0 -0 1
    outer loop
      vertex -5.7735 -9.99998 110
      vertex -4.33012 -2.49998 110
      vertex -11.547 0 110
    endloop
  endfacet
  facet normal 0 0 1
    outer loop
      vertex -4.33012 -2.49998 110
      vertex -4.56772 -2.03368 110
      vertex -11.547 0 110
    endloop
  endfacet
  facet normal 0 0 1
    outer loop
      vertex -4.56772 -2.03368 110
      vertex -4.75528 -1.54507 110
      vertex -11.547 0 110
    endloop
  endfacet
  facet normal 0 0 1
    outer loop
      vertex -4.75528 -1.54507 110
      vertex -4.89073 -1.03955 110
      vertex -11.547 0 110
    endloop
  endfacet
  facet normal 0 0 1
    outer loop
      vertex -4.89073 -1.03955 110
      vertex -4.9726 -0.522629 110
      vertex -11.547 0 110
    endloop
  endfacet
  facet normal 0 -0 1
    outer loop
      vertex -4.9726 0.522629 110
      vertex -4.89073 1.03955 110
      vertex -11.547 0 110
    endloop
  endfacet
  facet normal 0 -0 1
    outer loop
      vertex -4.89073 1.03955 110
      vertex -4.75528 1.54507 110
      vertex -11.547 0 110
    endloop
  endfacet
  facet normal 0 -0 1
    outer loop
      vertex -4.75528 1.54507 110
      vertex -4.56772 2.03368 110
      vertex -11.547 0 110
    endloop
  endfacet
  facet normal 0 -0 1
    outer loop
      vertex -4.56772 2.03368 110
      vertex -4.33012 2.49998 110
      vertex -11.547 0 110
    endloop
  endfacet
  facet normal 0 0 1
    outer loop
      vertex -4.33012 2.49998 110
      vertex -5.7735 10 110
      vertex -11.547 0 110
    endloop
  endfacet
  facet normal 0 0 1
    outer loop
      vertex -4.04507 2.93892 110
      vertex -5.7735 10 110
      vertex -4.33012 2.49998 110
    endloop
  endfacet
  facet normal 0 0 1
    outer loop
      vertex -3.71571 3.34564 110
      vertex -5.7735 10 110
      vertex -4.04507 2.93892 110
    endloop
  endfacet
  facet normal 0 0 1
    outer loop
      vertex -3.34564 3.71571 110
      vertex -5.7735 10 110
      vertex -3.71571 3.34564 110
    endloop
  endfacet
  facet normal 0 0 1
    outer loop
      vertex -2.93892 4.04507 110
      vertex -5.7735 10 110
      vertex -3.34564 3.71571 110
    endloop
  endfacet
  facet normal 0 0 1
    outer loop
      vertex -2.49998 4.33012 110
      vertex -5.7735 10 110
      vertex -2.93892 4.04507 110
    endloop
  endfacet
  facet normal 0 0 1
    outer loop
      vertex -2.03368 4.56772 110
      vertex -5.7735 10 110
      vertex -2.49998 4.33012 110
    endloop
  endfacet
  facet normal 0 0 1
    outer loop
      vertex -1.54507 4.75528 110
      vertex -5.7735 10 110
      vertex -2.03368 4.56772 110
    endloop
  endfacet
  facet normal 0 0 1
    outer loop
      vertex -1.03955 4.89073 110
      vertex -5.7735 10 110
      vertex -1.54507 4.75528 110
    endloop
  endfacet
  facet normal 0 0 1
    outer loop
      vertex -0.522629 4.9726 110
      vertex -5.7735 10 110
      vertex -1.03955 4.89073 110
    endloop
  endfacet
  facet normal 0 0 1
    outer loop
      vertex 0 5 110
      vertex -5.7735 10 110
      vertex -0.522629 4.9726 110
    endloop
  endfacet
  facet normal 0 0 1
    outer loop
      vertex 5.7735 10 110
      vertex -5.7735 10 110
      vertex 0 5 110
    endloop
  endfacet
  facet normal 0 0 1
    outer loop
      vertex 5.7735 10 110
      vertex 0 5 110
      vertex 0.522629 4.9726 110
    endloop
  endfacet
  facet normal 0 0 1
    outer loop
      vertex 5.7735 10 110
      vertex 0.522629 4.9726 110
      vertex 1.03955 4.89073 110
    endloop
  endfacet
  facet normal 0 0 1
    outer loop
      vertex 5.7735 10 110
      vertex 1.03955 4.89073 110
      vertex 1.54507 4.75528 110
    endloop
  endfacet
  facet normal 0 0 1
    outer loop
      vertex 5.7735 10 110
      vertex 2.03368 4.56772 110
      vertex 2.5 4.33012 110
    endloop
  endfacet
  facet normal 0 0 1
    outer loop
      vertex 5.7735 10 110
      vertex 1.54507 4.75528 110
      vertex 2.03368 4.56772 110
    endloop
  endfacet
  facet normal -0 0 1
    outer loop
      vertex 2.93892 4.04507 110
      vertex 3.34564 3.71571 110
      vertex 5.7735 10 110
    endloop
  endfacet
  facet normal -0 0 1
    outer loop
      vertex 3.34564 3.71571 110
      vertex 3.71571 3.34564 110
      vertex 5.7735 10 110
    endloop
  endfacet
  facet normal -0 0 1
    outer loop
      vertex 3.71571 3.34564 110
      vertex 4.04507 2.93892 110
      vertex 5.7735 10 110
    endloop
  endfacet
  facet normal -0 0 1
    outer loop
      vertex 4.04507 2.93892 110
      vertex 4.33012 2.49998 110
      vertex 5.7735 10 110
    endloop
  endfacet
  facet normal -0 0 1
    outer loop
      vertex 4.33012 2.49998 110
      vertex 11.547 0 110
      vertex 5.7735 10 110
    endloop
  endfacet
  facet normal -0 0 1
    outer loop
      vertex 5 0 110
      vertex 4.9726 -0.522629 110
      vertex 11.547 0 110
    endloop
  endfacet
  facet normal 0 0 1
    outer loop
      vertex 4.33012 2.49998 110
      vertex 4.56772 2.03368 110
      vertex 11.547 0 110
    endloop
  endfacet
  facet normal 0 0 1
    outer loop
      vertex 4.56772 2.03368 110
      vertex 4.75528 1.54507 110
      vertex 11.547 0 110
    endloop
  endfacet
  facet normal 0 0 1
    outer loop
      vertex 4.75528 1.54507 110
      vertex 4.89073 1.03955 110
      vertex 11.547 0 110
    endloop
  endfacet
  facet normal 0 0 1
    outer loop
      vertex 4.89073 1.03955 110
      vertex 4.9726 0.522629 110
      vertex 11.547 0 110
    endloop
  endfacet
  facet normal -0 0 1
    outer loop
      vertex 4.9726 -0.522629 110
      vertex 4.89073 -1.03955 110
      vertex 11.547 0 110
    endloop
  endfacet
  facet normal -0 0 1
    outer loop
      vertex 4.89073 -1.03955 110
      vertex 4.75528 -1.54507 110
      vertex 11.547 0 110
    endloop
  endfacet
  facet normal -0 0 1
    outer loop
      vertex 4.75528 -1.54507 110
      vertex 4.56772 -2.03368 110
      vertex 11.547 0 110
    endloop
  endfacet
  facet normal -0 0 1
    outer loop
      vertex 4.56772 -2.03368 110
      vertex 4.33012 -2.49998 110
      vertex 11.547 0 110
    endloop
  endfacet
  facet normal -0 0 1
    outer loop
      vertex 4.33012 -2.49998 110
      vertex 5.7735 -10 110
      vertex 11.547 0 110
    endloop
  endfacet
  facet normal -0 0 1
    outer loop
      vertex 4.04507 -2.93892 110
      vertex 5.7735 -10 110
      vertex 4.33012 -2.49998 110
    endloop
  endfacet
  facet normal -0 0 1
    outer loop
      vertex 3.71571 -3.34564 110
      vertex 5.7735 -10 110
      vertex 4.04507 -2.93892 110
    endloop
  endfacet
  facet normal -0 0 1
    outer loop
      vertex 3.34564 -3.71571 110
      vertex 5.7735 -10 110
      vertex 3.71571 -3.34564 110
    endloop
  endfacet
  facet normal -0 0 1
    outer loop
      vertex 2.93892 -4.04507 110
      vertex 5.7735 -10 110
      vertex 3.34564 -3.71571 110
    endloop
  endfacet
  facet normal -0 0 1
    outer loop
      vertex 2.5 -4.33012 110
      vertex 5.7735 -10 110
      vertex 2.93892 -4.04507 110
    endloop
  endfacet
  facet normal -0 0 1
    outer loop
      vertex 2.03368 -4.56772 110
      vertex 5.7735 -10 110
      vertex 2.5 -4.33012 110
    endloop
  endfacet
  facet normal -0 0 1
    outer loop
      vertex 1.54507 -4.75528 110
      vertex 5.7735 -10 110
      vertex 2.03368 -4.56772 110
    endloop
  endfacet
  facet normal -0 0 1
    outer loop
      vertex 1.03955 -4.89073 110
      vertex 5.7735 -10 110
      vertex 1.54507 -4.75528 110
    endloop
  endfacet
  facet normal -0 0 1
    outer loop
      vertex 0.522629 -4.9726 110
      vertex 5.7735 -10 110
      vertex 1.03955 -4.89073 110
    endloop
  endfacet
  facet normal -0 0 1
    outer loop
      vertex 0 -5 110
      vertex 5.7735 -10 110
      vertex 0.522629 -4.9726 110
    endloop
  endfacet
  facet normal 0.866026 0.5 0
    outer loop
      vertex 5.7735 10 0
      vertex 11.547 0 110
      vertex 11.547 0 0
    endloop
  endfacet
  facet normal 0.866026 0.5 -0
    outer loop
      vertex 5.7735 10 0
      vertex 5.7735 10 110
      vertex 11.547 0 110
    endloop
  endfacet
  facet normal 0 1 0
    outer loop
      vertex -5.7735 10 0
      vertex 5.7735 10 110
      vertex 5.7735 10 0
    endloop
  endfacet
  facet normal 0 1 0
    outer loop
      vertex -5.7735 10 0
      vertex -5.7735 10 110
      vertex 5.7735 10 110
    endloop
  endfacet
  facet normal -0.866026 0.5 0
    outer loop
      vertex -11.547 0 0
      vertex -5.7735 10 110
      vertex -5.7735 10 0
    endloop
  endfacet
  facet normal -0.866026 0.5 0
    outer loop
      vertex -11.547 0 0
      vertex -11.547 0 110
      vertex -5.7735 10 110
    endloop
  endfacet
  facet normal -0.866025 -0.5 0
    outer loop
      vertex -5.7735 -9.99998 0
      vertex -11.547 0 110
      vertex -11.547 0 0
    endloop
  endfacet
  facet normal -0.866025 -0.5 0
    outer loop
      vertex -5.7735 -9.99998 0
      vertex -5.7735 -9.99998 110
      vertex -11.547 0 110
    endloop
  endfacet
  facet normal -1.32145e-006 -1 0
    outer loop
      vertex 5.7735 -10 0
      vertex -5.7735 -9.99998 110
      vertex -5.7735 -9.99998 0
    endloop
  endfacet
  facet normal -1.32145e-006 -1 0
    outer loop
      vertex 5.7735 -10 0
      vertex 5.7735 -10 110
      vertex -5.7735 -9.99998 110
    endloop
  endfacet
  facet normal 0.866026 -0.5 0
    outer loop
      vertex 11.547 0 0
      vertex 5.7735 -10 110
      vertex 5.7735 -10 0
    endloop
  endfacet
  facet normal 0.866026 -0.5 0
    outer loop
      vertex 11.547 0 0
      vertex 11.547 0 110
      vertex 5.7735 -10 110
    endloop
  endfacet
  facet normal 0.156418 0.987691 -0
    outer loop
      vertex -1.03955 -4.89073 0
      vertex -1.03955 -4.89073 110
      vertex -0.522629 -4.9726 0
    endloop
  endfacet
  facet normal 0.156418 0.987691 0
    outer loop
      vertex -0.522629 -4.9726 110
      vertex -0.522629 -4.9726 0
      vertex -1.03955 -4.89073 110
    endloop
  endfacet
  facet normal 0.258815 0.965927 -0
    outer loop
      vertex -1.54507 -4.75528 0
      vertex -1.54507 -4.75528 110
      vertex -1.03955 -4.89073 0
    endloop
  endfacet
  facet normal 0.258815 0.965927 0
    outer loop
      vertex -1.03955 -4.89073 110
      vertex -1.03955 -4.89073 0
      vertex -1.54507 -4.75528 110
    endloop
  endfacet
  facet normal 0.358375 0.933578 -0
    outer loop
      vertex -2.03368 -4.56772 0
      vertex -2.03368 -4.56772 110
      vertex -1.54507 -4.75528 0
    endloop
  endfacet
  facet normal 0.358375 0.933578 0
    outer loop
      vertex -1.54507 -4.75528 110
      vertex -1.54507 -4.75528 0
      vertex -2.03368 -4.56772 110
    endloop
  endfacet
  facet normal 0.453976 0.891014 -0
    outer loop
      vertex -2.5 -4.33012 0
      vertex -2.5 -4.33012 110
      vertex -2.03368 -4.56772 0
    endloop
  endfacet
  facet normal 0.453976 0.891014 0
    outer loop
      vertex -2.03368 -4.56772 110
      vertex -2.03368 -4.56772 0
      vertex -2.5 -4.33012 110
    endloop
  endfacet
  facet normal 0.544655 0.83866 -0
    outer loop
      vertex -2.93892 -4.04507 0
      vertex -2.93892 -4.04507 110
      vertex -2.5 -4.33012 0
    endloop
  endfacet
  facet normal 0.544655 0.83866 0
    outer loop
      vertex -2.5 -4.33012 110
      vertex -2.5 -4.33012 0
      vertex -2.93892 -4.04507 110
    endloop
  endfacet
  facet normal 0.629324 0.777143 -0
    outer loop
      vertex -3.34564 -3.71571 0
      vertex -3.34564 -3.71571 110
      vertex -2.93892 -4.04507 0
    endloop
  endfacet
  facet normal 0.629324 0.777143 0
    outer loop
      vertex -2.93892 -4.04507 110
      vertex -2.93892 -4.04507 0
      vertex -3.34564 -3.71571 110
    endloop
  endfacet
  facet normal 0.707107 0.707107 -0
    outer loop
      vertex -3.71571 -3.34564 0
      vertex -3.71571 -3.34564 110
      vertex -3.34564 -3.71571 0
    endloop
  endfacet
  facet normal 0.707107 0.707107 0
    outer loop
      vertex -3.34564 -3.71571 110
      vertex -3.34564 -3.71571 0
      vertex -3.71571 -3.34564 110
    endloop
  endfacet
  facet normal 0.777143 0.629324 -0
    outer loop
      vertex -4.04507 -2.93892 0
      vertex -4.04507 -2.93892 110
      vertex -3.71571 -3.34564 0
    endloop
  endfacet
  facet normal 0.777143 0.629324 0
    outer loop
      vertex -3.71571 -3.34564 110
      vertex -3.71571 -3.34564 0
      vertex -4.04507 -2.93892 110
    endloop
  endfacet
  facet normal 0.838669 0.544642 -0
    outer loop
      vertex -4.33012 -2.49998 0
      vertex -4.33012 -2.49998 110
      vertex -4.04507 -2.93892 0
    endloop
  endfacet
  facet normal 0.838669 0.544642 0
    outer loop
      vertex -4.04507 -2.93892 110
      vertex -4.04507 -2.93892 0
      vertex -4.33012 -2.49998 110
    endloop
  endfacet
  facet normal 0.891008 0.453988 -0
    outer loop
      vertex -4.56772 -2.03368 0
      vertex -4.56772 -2.03368 110
      vertex -4.33012 -2.49998 0
    endloop
  endfacet
  facet normal 0.891008 0.453988 0
    outer loop
      vertex -4.33012 -2.49998 110
      vertex -4.33012 -2.49998 0
      vertex -4.56772 -2.03368 110
    endloop
  endfacet
  facet normal 0.933578 0.358375 -0
    outer loop
      vertex -4.75528 -1.54507 0
      vertex -4.75528 -1.54507 110
      vertex -4.56772 -2.03368 0
    endloop
  endfacet
  facet normal 0.933578 0.358375 0
    outer loop
      vertex -4.56772 -2.03368 110
      vertex -4.56772 -2.03368 0
      vertex -4.75528 -1.54507 110
    endloop
  endfacet
  facet normal 0.965927 0.258815 -0
    outer loop
      vertex -4.89073 -1.03955 0
      vertex -4.89073 -1.03955 110
      vertex -4.75528 -1.54507 0
    endloop
  endfacet
  facet normal 0.965927 0.258815 0
    outer loop
      vertex -4.75528 -1.54507 110
      vertex -4.75528 -1.54507 0
      vertex -4.89073 -1.03955 110
    endloop
  endfacet
  facet normal 0.987691 0.156418 -0
    outer loop
      vertex -4.9726 -0.522629 0
      vertex -4.9726 -0.522629 110
      vertex -4.89073 -1.03955 0
    endloop
  endfacet
  facet normal 0.987691 0.156418 0
    outer loop
      vertex -4.89073 -1.03955 110
      vertex -4.89073 -1.03955 0
      vertex -4.9726 -0.522629 110
    endloop
  endfacet
  facet normal 0.998628 0.0523645 -0
    outer loop
      vertex -5 0 0
      vertex -5 0 110
      vertex -4.9726 -0.522629 0
    endloop
  endfacet
  facet normal 0.998628 0.0523645 0
    outer loop
      vertex -4.9726 -0.522629 110
      vertex -4.9726 -0.522629 0
      vertex -5 0 110
    endloop
  endfacet
  facet normal 0.998628 -0.0523645 0
    outer loop
      vertex -4.9726 0.522629 0
      vertex -4.9726 0.522629 110
      vertex -5 0 0
    endloop
  endfacet
  facet normal 0.998628 -0.0523645 0
    outer loop
      vertex -5 0 110
      vertex -5 0 0
      vertex -4.9726 0.522629 110
    endloop
  endfacet
  facet normal 0.987691 -0.156418 0
    outer loop
      vertex -4.89073 1.03955 0
      vertex -4.89073 1.03955 110
      vertex -4.9726 0.522629 0
    endloop
  endfacet
  facet normal 0.987691 -0.156418 0
    outer loop
      vertex -4.9726 0.522629 110
      vertex -4.9726 0.522629 0
      vertex -4.89073 1.03955 110
    endloop
  endfacet
  facet normal 0.965927 -0.258815 0
    outer loop
      vertex -4.75528 1.54507 0
      vertex -4.75528 1.54507 110
      vertex -4.89073 1.03955 0
    endloop
  endfacet
  facet normal 0.965927 -0.258815 0
    outer loop
      vertex -4.89073 1.03955 110
      vertex -4.89073 1.03955 0
      vertex -4.75528 1.54507 110
    endloop
  endfacet
  facet normal 0.933578 -0.358375 0
    outer loop
      vertex -4.56772 2.03368 0
      vertex -4.56772 2.03368 110
      vertex -4.75528 1.54507 0
    endloop
  endfacet
  facet normal 0.933578 -0.358375 0
    outer loop
      vertex -4.75528 1.54507 110
      vertex -4.75528 1.54507 0
      vertex -4.56772 2.03368 110
    endloop
  endfacet
  facet normal 0.891008 -0.453988 0
    outer loop
      vertex -4.33012 2.49998 0
      vertex -4.33012 2.49998 110
      vertex -4.56772 2.03368 0
    endloop
  endfacet
  facet normal 0.891008 -0.453988 0
    outer loop
      vertex -4.56772 2.03368 110
      vertex -4.56772 2.03368 0
      vertex -4.33012 2.49998 110
    endloop
  endfacet
  facet normal 0.838669 -0.544642 0
    outer loop
      vertex -4.04507 2.93892 0
      vertex -4.04507 2.93892 110
      vertex -4.33012 2.49998 0
    endloop
  endfacet
  facet normal 0.838669 -0.544642 0
    outer loop
      vertex -4.33012 2.49998 110
      vertex -4.33012 2.49998 0
      vertex -4.04507 2.93892 110
    endloop
  endfacet
  facet normal 0.777143 -0.629324 0
    outer loop
      vertex -3.71571 3.34564 0
      vertex -3.71571 3.34564 110
      vertex -4.04507 2.93892 0
    endloop
  endfacet
  facet normal 0.777143 -0.629324 0
    outer loop
      vertex -4.04507 2.93892 110
      vertex -4.04507 2.93892 0
      vertex -3.71571 3.34564 110
    endloop
  endfacet
  facet normal 0.707107 -0.707107 0
    outer loop
      vertex -3.34564 3.71571 0
      vertex -3.34564 3.71571 110
      vertex -3.71571 3.34564 0
    endloop
  endfacet
  facet normal 0.707107 -0.707107 0
    outer loop
      vertex -3.71571 3.34564 110
      vertex -3.71571 3.34564 0
      vertex -3.34564 3.71571 110
    endloop
  endfacet
  facet normal 0.629324 -0.777143 0
    outer loop
      vertex -2.93892 4.04507 0
      vertex -2.93892 4.04507 110
      vertex -3.34564 3.71571 0
    endloop
  endfacet
  facet normal 0.629324 -0.777143 0
    outer loop
      vertex -3.34564 3.71571 110
      vertex -3.34564 3.71571 0
      vertex -2.93892 4.04507 110
    endloop
  endfacet
  facet normal 0.544642 -0.838669 0
    outer loop
      vertex -2.49998 4.33012 0
      vertex -2.49998 4.33012 110
      vertex -2.93892 4.04507 0
    endloop
  endfacet
  facet normal 0.544642 -0.838669 0
    outer loop
      vertex -2.93892 4.04507 110
      vertex -2.93892 4.04507 0
      vertex -2.49998 4.33012 110
    endloop
  endfacet
  facet normal 0.453988 -0.891008 0
    outer loop
      vertex -2.03368 4.56772 0
      vertex -2.03368 4.56772 110
      vertex -2.49998 4.33012 0
    endloop
  endfacet
  facet normal 0.453988 -0.891008 0
    outer loop
      vertex -2.49998 4.33012 110
      vertex -2.49998 4.33012 0
      vertex -2.03368 4.56772 110
    endloop
  endfacet
  facet normal 0.358375 -0.933578 0
    outer loop
      vertex -1.54507 4.75528 0
      vertex -1.54507 4.75528 110
      vertex -2.03368 4.56772 0
    endloop
  endfacet
  facet normal 0.358375 -0.933578 0
    outer loop
      vertex -2.03368 4.56772 110
      vertex -2.03368 4.56772 0
      vertex -1.54507 4.75528 110
    endloop
  endfacet
  facet normal 0.258815 -0.965927 0
    outer loop
      vertex -1.03955 4.89073 0
      vertex -1.03955 4.89073 110
      vertex -1.54507 4.75528 0
    endloop
  endfacet
  facet normal 0.258815 -0.965927 0
    outer loop
      vertex -1.54507 4.75528 110
      vertex -1.54507 4.75528 0
      vertex -1.03955 4.89073 110
    endloop
  endfacet
  facet normal 0.156418 -0.987691 0
    outer loop
      vertex -0.522629 4.9726 0
      vertex -0.522629 4.9726 110
      vertex -1.03955 4.89073 0
    endloop
  endfacet
  facet normal 0.156418 -0.987691 0
    outer loop
      vertex -1.03955 4.89073 110
      vertex -1.03955 4.89073 0
      vertex -0.522629 4.9726 110
    endloop
  endfacet
  facet normal 0.0523645 -0.998628 0
    outer loop
      vertex 0 5 0
      vertex 0 5 110
      vertex -0.522629 4.9726 0
    endloop
  endfacet
  facet normal 0.0523645 -0.998628 0
    outer loop
      vertex -0.522629 4.9726 110
      vertex -0.522629 4.9726 0
      vertex 0 5 110
    endloop
  endfacet
  facet normal -0.0523645 -0.998628 0
    outer loop
      vertex 0.522629 4.9726 0
      vertex 0.522629 4.9726 110
      vertex 0 5 0
    endloop
  endfacet
  facet normal -0.0523645 -0.998628 -0
    outer loop
      vertex 0 5 110
      vertex 0 5 0
      vertex 0.522629 4.9726 110
    endloop
  endfacet
  facet normal -0.156418 -0.987691 0
    outer loop
      vertex 1.03955 4.89073 0
      vertex 1.03955 4.89073 110
      vertex 0.522629 4.9726 0
    endloop
  endfacet
  facet normal -0.156418 -0.987691 -0
    outer loop
      vertex 0.522629 4.9726 110
      vertex 0.522629 4.9726 0
      vertex 1.03955 4.89073 110
    endloop
  endfacet
  facet normal -0.258815 -0.965927 0
    outer loop
      vertex 1.54507 4.75528 0
      vertex 1.54507 4.75528 110
      vertex 1.03955 4.89073 0
    endloop
  endfacet
  facet normal -0.258815 -0.965927 -0
    outer loop
      vertex 1.03955 4.89073 110
      vertex 1.03955 4.89073 0
      vertex 1.54507 4.75528 110
    endloop
  endfacet
  facet normal -0.358375 -0.933578 0
    outer loop
      vertex 2.03368 4.56772 0
      vertex 2.03368 4.56772 110
      vertex 1.54507 4.75528 0
    endloop
  endfacet
  facet normal -0.358375 -0.933578 -0
    outer loop
      vertex 1.54507 4.75528 110
      vertex 1.54507 4.75528 0
      vertex 2.03368 4.56772 110
    endloop
  endfacet
  facet normal -0.453976 -0.891014 0
    outer loop
      vertex 2.5 4.33012 0
      vertex 2.5 4.33012 110
      vertex 2.03368 4.56772 0
    endloop
  endfacet
  facet normal -0.453976 -0.891014 -0
    outer loop
      vertex 2.03368 4.56772 110
      vertex 2.03368 4.56772 0
      vertex 2.5 4.33012 110
    endloop
  endfacet
  facet normal -0.544655 -0.83866 0
    outer loop
      vertex 2.93892 4.04507 0
      vertex 2.93892 4.04507 110
      vertex 2.5 4.33012 0
    endloop
  endfacet
  facet normal -0.544655 -0.83866 -0
    outer loop
      vertex 2.5 4.33012 110
      vertex 2.5 4.33012 0
      vertex 2.93892 4.04507 110
    endloop
  endfacet
  facet normal -0.629324 -0.777143 0
    outer loop
      vertex 3.34564 3.71571 0
      vertex 3.34564 3.71571 110
      vertex 2.93892 4.04507 0
    endloop
  endfacet
  facet normal -0.629324 -0.777143 -0
    outer loop
      vertex 2.93892 4.04507 110
      vertex 2.93892 4.04507 0
      vertex 3.34564 3.71571 110
    endloop
  endfacet
  facet normal -0.707107 -0.707107 0
    outer loop
      vertex 3.71571 3.34564 0
      vertex 3.71571 3.34564 110
      vertex 3.34564 3.71571 0
    endloop
  endfacet
  facet normal -0.707107 -0.707107 -0
    outer loop
      vertex 3.34564 3.71571 110
      vertex 3.34564 3.71571 0
      vertex 3.71571 3.34564 110
    endloop
  endfacet
  facet normal -0.777143 -0.629324 0
    outer loop
      vertex 4.04507 2.93892 0
      vertex 4.04507 2.93892 110
      vertex 3.71571 3.34564 0
    endloop
  endfacet
  facet normal -0.777143 -0.629324 -0
    outer loop
      vertex 3.71571 3.34564 110
      vertex 3.71571 3.34564 0
      vertex 4.04507 2.93892 110
    endloop
  endfacet
  facet normal -0.838669 -0.544642 0
    outer loop
      vertex 4.33012 2.49998 0
      vertex 4.33012 2.49998 110
      vertex 4.04507 2.93892 0
    endloop
  endfacet
  facet normal -0.838669 -0.544642 -0
    outer loop
      vertex 4.04507 2.93892 110
      vertex 4.04507 2.93892 0
      vertex 4.33012 2.49998 110
    endloop
  endfacet
  facet normal -0.891008 -0.453988 0
    outer loop
      vertex 4.56772 2.03368 0
      vertex 4.56772 2.03368 110
      vertex 4.33012 2.49998 0
    endloop
  endfacet
  facet normal -0.891008 -0.453988 -0
    outer loop
      vertex 4.33012 2.49998 110
      vertex 4.33012 2.49998 0
      vertex 4.56772 2.03368 110
    endloop
  endfacet
  facet normal -0.933578 -0.358375 0
    outer loop
      vertex 4.75528 1.54507 0
      vertex 4.75528 1.54507 110
      vertex 4.56772 2.03368 0
    endloop
  endfacet
  facet normal -0.933578 -0.358375 -0
    outer loop
      vertex 4.56772 2.03368 110
      vertex 4.56772 2.03368 0
      vertex 4.75528 1.54507 110
    endloop
  endfacet
  facet normal -0.965927 -0.258815 0
    outer loop
      vertex 4.89073 1.03955 0
      vertex 4.89073 1.03955 110
      vertex 4.75528 1.54507 0
    endloop
  endfacet
  facet normal -0.965927 -0.258815 -0
    outer loop
      vertex 4.75528 1.54507 110
      vertex 4.75528 1.54507 0
      vertex 4.89073 1.03955 110
    endloop
  endfacet
  facet normal -0.987691 -0.156418 0
    outer loop
      vertex 4.9726 0.522629 0
      vertex 4.9726 0.522629 110
      vertex 4.89073 1.03955 0
    endloop
  endfacet
  facet normal -0.987691 -0.156418 -0
    outer loop
      vertex 4.89073 1.03955 110
      vertex 4.89073 1.03955 0
      vertex 4.9726 0.522629 110
    endloop
  endfacet
  facet normal -0.998628 -0.0523645 0
    outer loop
      vertex 5 0 0
      vertex 5 0 110
      vertex 4.9726 0.522629 0
    endloop
  endfacet
  facet normal -0.998628 -0.0523645 -0
    outer loop
      vertex 4.9726 0.522629 110
      vertex 4.9726 0.522629 0
      vertex 5 0 110
    endloop
  endfacet
  facet normal -0.998628 0.0523645 0
    outer loop
      vertex 4.9726 -0.522629 0
      vertex 4.9726 -0.522629 110
      vertex 5 0 0
    endloop
  endfacet
  facet normal -0.998628 0.0523645 0
    outer loop
      vertex 5 0 110
      vertex 5 0 0
      vertex 4.9726 -0.522629 110
    endloop
  endfacet
  facet normal -0.987691 0.156418 0
    outer loop
      vertex 4.89073 -1.03955 0
      vertex 4.89073 -1.03955 110
      vertex 4.9726 -0.522629 0
    endloop
  endfacet
  facet normal -0.987691 0.156418 0
    outer loop
      vertex 4.9726 -0.522629 110
      vertex 4.9726 -0.522629 0
      vertex 4.89073 -1.03955 110
    endloop
  endfacet
  facet normal -0.965927 0.258815 0
    outer loop
      vertex 4.75528 -1.54507 0
      vertex 4.75528 -1.54507 110
      vertex 4.89073 -1.03955 0
    endloop
  endfacet
  facet normal -0.965927 0.258815 0
    outer loop
      vertex 4.89073 -1.03955 110
      vertex 4.89073 -1.03955 0
      vertex 4.75528 -1.54507 110
    endloop
  endfacet
  facet normal -0.933578 0.358375 0
    outer loop
      vertex 4.56772 -2.03368 0
      vertex 4.56772 -2.03368 110
      vertex 4.75528 -1.54507 0
    endloop
  endfacet
  facet normal -0.933578 0.358375 0
    outer loop
      vertex 4.75528 -1.54507 110
      vertex 4.75528 -1.54507 0
      vertex 4.56772 -2.03368 110
    endloop
  endfacet
  facet normal -0.891008 0.453988 0
    outer loop
      vertex 4.33012 -2.49998 0
      vertex 4.33012 -2.49998 110
      vertex 4.56772 -2.03368 0
    endloop
  endfacet
  facet normal -0.891008 0.453988 0
    outer loop
      vertex 4.56772 -2.03368 110
      vertex 4.56772 -2.03368 0
      vertex 4.33012 -2.49998 110
    endloop
  endfacet
  facet normal -0.838669 0.544642 0
    outer loop
      vertex 4.04507 -2.93892 0
      vertex 4.04507 -2.93892 110
      vertex 4.33012 -2.49998 0
    endloop
  endfacet
  facet normal -0.838669 0.544642 0
    outer loop
      vertex 4.33012 -2.49998 110
      vertex 4.33012 -2.49998 0
      vertex 4.04507 -2.93892 110
    endloop
  endfacet
  facet normal -0.777143 0.629324 0
    outer loop
      vertex 3.71571 -3.34564 0
      vertex 3.71571 -3.34564 110
      vertex 4.04507 -2.93892 0
    endloop
  endfacet
  facet normal -0.777143 0.629324 0
    outer loop
      vertex 4.04507 -2.93892 110
      vertex 4.04507 -2.93892 0
      vertex 3.71571 -3.34564 110
    endloop
  endfacet
  facet normal -0.707107 0.707107 0
    outer loop
      vertex 3.34564 -3.71571 0
      vertex 3.34564 -3.71571 110
      vertex 3.71571 -3.34564 0
    endloop
  endfacet
  facet normal -0.707107 0.707107 0
    outer loop
      vertex 3.71571 -3.34564 110
      vertex 3.71571 -3.34564 0
      vertex 3.34564 -3.71571 110
    endloop
  endfacet
  facet normal -0.629324 0.777143 0
    outer loop
      vertex 2.93892 -4.04507 0
      vertex 2.93892 -4.04507 110
      vertex 3.34564 -3.71571 0
    endloop
  endfacet
  facet normal -0.629324 0.777143 0
    outer loop
      vertex 3.34564 -3.71571 110
      vertex 3.34564 -3.71571 0
      vertex 2.93892 -4.04507 110
    endloop
  endfacet
  facet normal -0.544655 0.83866 0
    outer loop
      vertex 2.5 -4.33012 0
      vertex 2.5 -4.33012 110
      vertex 2.93892 -4.04507 0
    endloop
  endfacet
  facet normal -0.544655 0.83866 0
    outer loop
      vertex 2.93892 -4.04507 110
      vertex 2.93892 -4.04507 0
      vertex 2.5 -4.33012 110
    endloop
  endfacet
  facet normal -0.453976 0.891014 0
    outer loop
      vertex 2.03368 -4.56772 0
      vertex 2.03368 -4.56772 110
      vertex 2.5 -4.33012 0
    endloop
  endfacet
  facet normal -0.453976 0.891014 0
    outer loop
      vertex 2.5 -4.33012 110
      vertex 2.5 -4.33012 0
      vertex 2.03368 -4.56772 110
    endloop
  endfacet
  facet normal -0.358375 0.933578 0
    outer loop
      vertex 1.54507 -4.75528 0
      vertex 1.54507 -4.75528 110
      vertex 2.03368 -4.56772 0
    endloop
  endfacet
  facet normal -0.358375 0.933578 0
    outer loop
      vertex 2.03368 -4.56772 110
      vertex 2.03368 -4.56772 0
      vertex 1.54507 -4.75528 110
    endloop
  endfacet
  facet normal -0.258815 0.965927 0
    outer loop
      vertex 1.03955 -4.89073 0
      vertex 1.03955 -4.89073 110
      vertex 1.54507 -4.75528 0
    endloop
  endfacet
  facet normal -0.258815 0.965927 0
    outer loop
      vertex 1.54507 -4.75528 110
      vertex 1.54507 -4.75528 0
      vertex 1.03955 -4.89073 110
    endloop
  endfacet
  facet normal -0.156418 0.987691 0
    outer loop
      vertex 0.522629 -4.9726 0
      vertex 0.522629 -4.9726 110
      vertex 1.03955 -4.89073 0
    endloop
  endfacet
  facet normal -0.156418 0.987691 0
    outer loop
      vertex 1.03955 -4.89073 110
      vertex 1.03955 -4.89073 0
      vertex 0.522629 -4.9726 110
    endloop
  endfacet
  facet normal -0.0523645 0.998628 0
    outer loop
      vertex 0 -5 0
      vertex 0 -5 110
      vertex 0.522629 -4.9726 0
    endloop
  endfacet
  facet normal -0.0523645 0.998628 0
    outer loop
      vertex 0.522629 -4.9726 110
      vertex 0.522629 -4.9726 0
      vertex 0 -5 110
    endloop
  endfacet
  facet normal 0.0523645 0.998628 -0
    outer loop
      vertex -0.522629 -4.9726 0
      vertex -0.522629 -4.9726 110
      vertex 0 -5 0
    endloop
  endfacet
  facet normal 0.0523645 0.998628 0
    outer loop
      vertex 0 -5 110
      vertex 0 -5 0
      vertex -0.522629 -4.9726 110
    endloop
  endfacet
endsolid OpenSCAD_Model
